<svg id="Layer_1" data-name="Layer 1" xmlns="http://www.w3.org/2000/svg" viewBox="0 0 438.29 459.59">
    <defs>
        <style>.cls-1{fill:#ff8243;}.cls-2{fill:#94451d;}.cls-3{fill:#fda65d;}</style>
    </defs>
    <g id="ORANGE">
        <g id="head">
            <polyline class="cls-1" points="168.35 432.16 385.99 297.26 385.99 113.73 168.01 241.44"/>
            <polyline class="cls-2" points="168.01 241.44 0 146.31 0 333.96 168.35 432.16"/>
            <polyline class="cls-3" points="0 146.31 221.25 13.32 385.99 113.73 168.6 244.11"/>
        </g>
        <g id="left">
            <polygon class="cls-3" points="96.96 202.56 96.56 127.05 157.87 92.23 198.51 116.96 198.51 189.99 137.08 225.48 96.96 202.56"/>
            <polygon class="cls-2" points="96.56 127.05 137.08 150.98 137.08 226.91 96.96 202.56 96.56 127.05"/>
            <polygon class="cls-1" points="137.08 150.98 198.51 116.96 198.51 189.99 137.08 225.48 137.08 150.98"/>
        </g>
        <g id="right">
            <polygon class="cls-3" points="258.49 110.32 258.09 34.81 319.4 0 360.04 24.73 360.04 97.76 298.61 133.25 258.49 110.32"/>
            <polygon class="cls-2" points="258.09 34.81 298.61 58.74 298.99 133.78 258.49 110.32 258.09 34.81"/>
            <polygon class="cls-1" points="298.61 58.74 360.04 24.73 360.04 97.76 298.99 133.78 298.61 58.74"/>
        </g>
        <g id="mouth">
            <polygon class="cls-3" points="216.25 401.94 216.25 336.34 344.99 258.44 438.29 317.91 438.29 383.82 312.92 459.59 216.25 401.94"/>
            <polygon class="cls-2" points="216.25 336.34 313.31 393.12 312.92 459.59 216.25 401.94 216.25 336.34"/>
            <polygon class="cls-1" points="312.92 459.59 438.29 383.82 438.29 317.91 313.31 393.12 312.92 459.59"/>
        </g>
        <polygon class="cls-2" points="216.25 336.34 167.79 367.22 168.35 324.03 216.25 293.33 216.25 336.34"/>
        <polygon class="cls-2" points="386.39 232.2 345.61 257.81 346.07 221.99 386.39 196.53 386.39 232.2"/>
        <polygon class="cls-2" points="399.8 377.92 359.17 402.15 359.17 365.61 399.36 341.24 399.8 377.92"/>
    </g>
</svg>