<?xml version="1.0" encoding="UTF-8" standalone="no"?>
<!-- Created with Inkscape (http://www.inkscape.org/) -->

<svg
   version="1.1"
   id="svg824"
   width="863"
   height="133"
   viewBox="0 0 863 133"
   sodipodi:docname="cr-logo.svg"
   inkscape:version="1.1 (c68e22c387, 2021-05-23)"
   xmlns:inkscape="http://www.inkscape.org/namespaces/inkscape"
   xmlns:sodipodi="http://sodipodi.sourceforge.net/DTD/sodipodi-0.dtd"
   xmlns="http://www.w3.org/2000/svg"
   xmlns:svg="http://www.w3.org/2000/svg">
  <defs
     id="defs828" />
  <sodipodi:namedview
     id="namedview826"
     pagecolor="#ffffff"
     bordercolor="#666666"
     borderopacity="1.0"
     inkscape:pageshadow="2"
     inkscape:pageopacity="0.0"
     inkscape:pagecheckerboard="0"
     showgrid="false"
     inkscape:zoom="1.1448436"
     inkscape:cx="431.5"
     inkscape:cy="66.821356"
     inkscape:window-width="1920"
     inkscape:window-height="991"
     inkscape:window-x="-9"
     inkscape:window-y="-9"
     inkscape:window-maximized="1"
     inkscape:current-layer="g830" />
  <g
     inkscape:groupmode="layer"
     inkscape:label="Image"
     id="g830">
    <path
       style="fill:#040404;fill-opacity:1;stroke:none;stroke-opacity:0.980736"
       d="m 83.108149,120.03915 -9.114522,-2.91914 -0.635477,-4.63632 c -0.349513,-2.54997 -0.635478,-5.84572 -0.635478,-7.32389 0,-2.6501 -0.135967,-2.70449 -9.75,-3.90008 -5.3625,-0.66688 -11.6625,-1.470762 -14,-1.786402 l -4.25,-0.573888 v 4.72054 c 0,3.62874 -0.322853,4.59664 -1.395913,4.18487 -0.767752,-0.29462 -3.242752,-1.08899 -5.5,-1.76528 l -4.104087,-1.22962 V 87.46823 70.126518 l 2.75,-0.01365 c 6.723549,-0.03339 7.25,-0.615066 7.25,-8.010551 v -6.790938 l 9.28214,-1.671288 c 5.105177,-0.919208 10.842677,-1.748302 12.75,-1.84243 l 3.46786,-0.171143 0.294324,7.875517 0.294323,7.875517 8.955677,-0.70059 c 8.249273,-0.645329 8.959303,-0.556632 9.001693,1.124483 0.0253,1.00379 1.09331,13.750073 2.37333,28.325073 1.28001,14.575002 2.2718,26.574652 2.20398,26.665892 -0.0678,0.0912 -4.22486,-1.14773 -9.23785,-2.75326 z m 73.638761,-18.51572 c -11.67425,-3.137159 -20.75522,-11.223839 -23.60254,-21.018253 -2.40008,-8.255978 -1.54943,-20.118674 1.97721,-27.573398 7.09668,-15.001145 27.01109,-23.61405 48.10109,-20.803538 3.85,0.513062 7.7875,0.947563 8.75,0.965558 1.51924,0.0284 1.75,1.09572 1.75,8.093992 v 8.061273 l -4.75,-0.811273 c -9.61439,-1.642083 -18.45763,-0.989209 -23.79324,1.756596 -7.32707,3.770641 -10.80922,9.267014 -11.22956,17.725227 -0.40835,8.216868 1.46088,12.392131 7.40345,16.536984 5.23457,3.651038 13.78761,4.498399 23.86935,2.364766 3.85,-0.814789 7.08582,-1.406133 7.19071,-1.314097 0.10489,0.09204 -0.36352,3.751877 -1.04091,8.13298 l -1.23162,7.965643 -3.95909,0.70269 c -6.82088,1.21061 -23.68169,0.76086 -29.43485,-0.78515 z m 565.04068,0.46778 c -2.98929,-0.49583 -5.51632,-1.00573 -5.61561,-1.1331 -0.0993,-0.12737 -0.4257,-3.976768 -0.72534,-8.554204 -0.48999,-7.485254 -0.37774,-8.253522 1.11561,-7.635911 9.39311,3.884728 22.29357,4.364496 24.81028,0.922693 0.74258,-1.015536 1.35014,-2.293077 1.35014,-2.838979 0,-0.545902 -5.36208,-6.197394 -11.91574,-12.55887 -9.83256,-9.544239 -12.03733,-12.221915 -12.61129,-15.316321 -2.14134,-11.544804 5.75115,-20.837269 19.30427,-22.728451 4.47867,-0.624947 23.98063,0.385134 24.86047,1.287619 0.10233,0.104958 0.50643,3.876063 0.89801,8.380234 l 0.71196,8.189403 -4.78277,-1.439403 c -6.81376,-2.050638 -14.70671,-1.87394 -17.50488,0.39188 -3.57576,2.895478 -1.99858,6.105954 6.27841,12.780198 12.77726,10.303089 15.75218,14.40972 15.75782,21.752365 0.006,8.378758 -5.18456,14.799292 -14.71385,18.198957 -4.27334,1.52456 -18.87007,1.68646 -27.21749,0.30189 z M 203.1036,96.376518 c 1.10782,-9.964599 2.59026,-39.27248 2.60495,-51.5 l 0.0141,-11.75 14.25,-0.25 c 29.98099,-0.525982 36.60929,0.365353 42.24543,5.680923 9.06173,8.546306 5.83713,25.032638 -6.02323,30.794844 -5.28589,2.568083 -5.42047,1.460233 2.21999,18.274233 2.9991,6.6 5.69341,12.562502 5.98735,13.250002 0.40992,0.95876 -2.16056,1.25 -11.03237,1.25 h -11.56681 l -1.93698,-6.250002 c -1.06534,-3.4375 -4.00842,-11.956125 -6.54018,-18.930277 -2.53176,-6.974153 -4.6032,-12.872367 -4.6032,-13.107143 0,-0.234776 2.45587,-0.426866 5.4575,-0.426866 8.66602,0 14.0814,-5.00769 11.95477,-11.054751 -1.33569,-3.798006 -4.83124,-5.199235 -13.01253,-5.216221 l -7.10025,-0.01474 -0.64975,9.153625 c -0.35736,5.034493 -0.64974,15.321686 -0.64974,22.860428 0,7.538743 -0.28617,15.794612 -0.63592,18.346376 l -0.63593,4.639571 h -10.49324 -10.49324 z m 73.01739,-2 c 1.45586,-17.18464 2.56161,-38.390637 2.58108,-49.5 l 0.0206,-11.75 h 28.63084 28.63084 l -0.61983,3.75 c -0.34091,2.0625 -0.62479,5.481892 -0.63084,7.598649 l -0.011,3.848649 -11.47506,-0.716989 c -6.31128,-0.394344 -13.92284,-0.411158 -16.91459,-0.03736 l -5.43953,0.679625 -0.68805,5.002738 c -0.37843,2.751506 -0.37397,5.311428 0.01,5.688715 0.38388,0.377287 6.95507,0.618042 14.60265,0.53501 l 13.90458,-0.150971 v 3.261396 c 0,1.793767 -0.29212,5.392647 -0.64916,7.997509 l -0.64915,4.736113 -6.60085,-0.268461 c -3.63046,-0.147654 -10.08834,-0.191098 -14.35084,-0.09654 l -7.75,0.17192 v 6.045594 6.045594 l 17.00128,-0.295594 17.00129,-0.295594 -0.0149,5.5 c -0.008,3.025 -0.28628,6.5125 -0.61792,7.75 l -0.60297,2.249999 h -28.0125 -28.01249 z m 67.99157,5 c 0.71552,-3.585401 2.37344,-29.432249 3.20721,-50 l 0.65873,-16.25 h 27.87208 27.87209 v 7.598649 7.598649 l -11.3784,-0.71095 c -6.25811,-0.391022 -14.13311,-0.39123 -17.5,-4.62e-4 l -6.1216,0.710488 v 5.3565 c 0,5.349645 0.005,5.357357 3.56879,6.026008 1.96283,0.368229 8.5525,0.3465 14.64372,-0.04829 l 11.07493,-0.717796 -0.64372,3.218601 c -0.35405,1.770233 -0.64372,5.374694 -0.64372,8.009915 v 4.791313 l -14.12193,0.03895 c -7.76705,0.02142 -14.31968,0.236704 -14.56138,0.478408 -0.24171,0.241704 -0.70192,2.982421 -1.0227,6.090484 l -0.58324,5.651022 17.75555,-0.295743 17.75556,-0.295742 -0.60224,5 c -0.33123,2.75 -0.60615,6.2375 -0.61093,7.749996 l -0.009,2.750002 H 372.1429 343.56345 Z m 69.03016,-3 c 0.90016,-8.396832 2.55928,-43.252276 2.57039,-54 l 0.01,-9.25 14.25,-0.242651 c 23.81144,-0.405465 28.67019,0.0058 33.49909,2.83576 11.98293,7.022464 11.61629,27.779952 -0.62782,35.544941 -5.82278,3.692696 -10.84923,5.042947 -17.35718,4.662645 l -5.14566,-0.300695 -1.69899,-6.75 -1.69899,-6.75 h 4.4667 c 8.09056,0 13.21892,-8.093929 8.26634,-13.04651 -1.70304,-1.703039 -3.08766,-1.996746 -8.25,-1.75 l -6.20349,0.29651 -0.65075,8.5 c -0.35791,4.675 -0.69541,16.9375 -0.75,27.25 l -0.0992,18.750002 h -10.59819 -10.59818 z m 65.93149,2.5 c 0.68456,-3.875185 2.30149,-29.25396 3.21745,-50.5 l 0.65746,-15.25 h 27.88677 27.88678 v 7.598649 7.598649 l -11.3784,-0.71095 c -6.25811,-0.391022 -14.13311,-0.39123 -17.5,-4.62e-4 l -6.1216,0.710488 v 5.3565 c 0,5.349645 0.005,5.357357 3.56879,6.026008 1.96283,0.368229 8.55131,0.346577 14.64106,-0.04812 l 11.07228,-0.717623 -0.62741,2.343428 c -0.34508,1.288886 -0.63356,4.89327 -0.64107,8.009741 l -0.0136,5.666317 -14.1634,0.03906 c -10.46668,0.02887 -14.37776,0.376965 -14.98469,1.333688 -0.45171,0.712045 -0.82818,3.452192 -0.8366,6.089215 l -0.0153,4.794588 17.60291,-0.294588 17.60291,-0.294588 -0.60291,4.389571 c -0.3316,2.414264 -0.60291,5.901764 -0.60291,7.75 v 3.360431 h -28.61129 -28.61129 z m 69.04877,-3.352979 c 1.04009,-10.151889 2.54917,-40.702997 2.57582,-52.147021 l 0.0239,-10.25 14.25,-0.25 c 19.93129,-0.349672 29.54702,0.03807 34.59471,1.395005 9.358,2.515633 14.50044,11.463111 12.23902,21.295025 -1.45412,6.322084 -4.71554,10.556223 -10.49118,13.620195 -2.5259,1.339987 -4.59255,2.726928 -4.59255,3.082089 0,0.355162 2.28975,5.755935 5.08832,12.001718 2.79858,6.245782 5.73563,12.832853 6.52678,14.637935 l 1.43845,3.281965 -11.65192,-0.28196 -11.65192,-0.28197 -3.73071,-11.500002 c -2.05189,-6.325 -4.92057,-14.591077 -6.37485,-18.369059 -1.45428,-3.777983 -2.64415,-7.201197 -2.64415,-7.607143 0,-0.405946 2.45587,-0.738084 5.4575,-0.738084 6.24781,0 10.10463,-2.003833 11.64259,-6.04898 2.52267,-6.635123 -2.01726,-10.236734 -12.90369,-10.236734 h -6.90293 l -0.64673,7.650878 c -0.35571,4.207982 -0.64879,11.520482 -0.65129,16.25 -0.003,4.729517 -0.29625,13.661622 -0.65279,19.849122 l -0.64824,11.250002 h -10.4853 -10.48531 z m 72.01056,2.852979 c 1.0437,-6.671383 2.5962,-29.301589 3.25863,-47.5 l 0.64611,-17.75 h 11.10943 11.10942 l -0.67404,9.25 c -0.37073,5.0875 -1.00312,17.2375 -1.40532,27 l -0.73127,17.75 h 15.63809 15.63808 v 4.375 c 0,2.40625 -0.28125,5.78125 -0.625,7.5 l -0.625,3.125002 h -26.9629 -26.9629 z m 62.00825,-5.5 c 0.93243,-13.128642 2.55116,-47.176832 2.56729,-54 l 0.0136,-5.75 h 11.14434 11.14434 l -0.65959,7.75 c -0.36277,4.2625 -0.94703,19.7875 -1.29836,34.5 l -0.63877,26.750002 h -11.4649 -11.4649 z m 108.01031,4.5 c 0.78957,-6.077551 2.54992,-35.970684 2.56163,-43.5 l 0.009,-5.75 h -11.10699 c -9.71728,0 -11.03104,-0.197914 -10.5,-1.581787 0.33385,-0.869984 0.60699,-4.244984 0.60699,-7.5 v -5.918213 h 32.63084 32.63084 l -0.61983,3.75 c -0.34091,2.0625 -0.62479,5.4375 -0.63084,7.5 l -0.011,3.75 H 825.3022 814.88165 l -0.57199,2.75 c -0.41773,2.008349 -2.56483,43.959272 -2.58465,50.500002 -10e-4,0.4125 -4.9945,0.75 -11.09611,0.75 H 789.53499 Z M 24.722672,50.56165 v -7.564868 l 8.580732,-4.021067 c 4.719403,-2.211586 8.706765,-3.869896 8.860806,-3.685132 0.15404,0.184764 0.555296,4.717977 0.89168,10.073807 0.69534,11.071077 1.809178,9.73273 -9.766877,11.735531 -9.064752,1.568315 -8.566341,1.948727 -8.566341,-6.538271 z m 44.627783,-4.185132 c -0.301406,-2.0625 -0.67846,-8.00311 -0.837897,-13.201356 l -0.289886,-9.451357 12.999997,-5.611569 c 7.15,-3.08637 14.83784,-6.33724 17.08409,-7.22417 l 4.084091,-1.6125802 1.96934,17.1755132 c 1.08314,9.446536 1.90325,17.292566 1.82247,17.435624 -0.22181,0.392832 -32.628549,6.239895 -34.583972,6.239895 -1.200608,0 -1.861255,-1.101943 -2.248233,-3.75 z"
       id="path914" />
  </g>
</svg>
